<svg id="Слой_1" data-name="Слой 1" xmlns="http://www.w3.org/2000/svg" viewBox="0 0 597.36 408.5"><defs><style>.cls-1{fill:#31bed0;}.cls-2{fill:#fbfefd;}</style></defs><title>gp2logo2</title><path class="cls-1" d="M251.7,408.2a4.63,4.63,0,0,0-2.63,1.31c-4.93,3.3-9.58,3.38-14.55.12-19.81-13-38.89-27-57.57-41.52-21.18-16.45-41.69-33.69-61.28-51.95C91.94,294.05,69.51,270.75,49.91,245c-14.93-19.64-28-40.33-37.08-63.31C5.7,163.56,1.7,144.87,3.37,125.45c4-46.59,25.71-82.37,67.81-105.34A112.83,112.83,0,0,1,90.1,12c5.47-1.8,8.78.53,8.79,6.23,0,12.58,0,25.15,0,37.73,0,4.05-1.8,6.8-5.43,8.82-21.66,12-34.05,30.54-38.6,54.33-3.49,18.28.37,35.51,8.13,52.11,11.55,24.68,28.06,46,46.05,66.4,19.5,22.08,40.93,42.25,63.22,61.55q30.58,26.47,63.35,50.31c4.64,3.4,7.37,3.23,12.17.05,3-2,4.2-4.32,4.19-8.08-.17-42.5-.08-85-.17-127.51,0-2.53.68-3.16,3.22-3.15,20.07.11,40.14,0,60.2.12,2.58,0,3.25-.66,3.24-3.19q-.11-71.19,0-142.38c0-4.6-1.78-5.74-6.16-3.91-18.06,7.52-32.7,19.35-44.8,34.39-7.05,8.75-13.25,18.11-20,27.1-.6.81-1.17,1.64-1.8,2.44-2.46,3.1-6,3-8.31-.19-6.83-9.36-13.41-18.91-20.54-28.05-12.08-15.5-26.88-27.8-45.36-35.45a12.7,12.7,0,0,0-2.89-1c-2-.3-3.27.54-3.56,2.55A19.36,19.36,0,0,0,165,66q0,95.7,0,191.4a35.29,35.29,0,0,1-.11,3.85,4.21,4.21,0,0,1-3,3.92,4.52,4.52,0,0,1-4.84-1.19c-11.46-10.47-22.37-21.47-32.85-32.87-2.86-3.11-6.08-5.93-8-9.8a18.15,18.15,0,0,1-1.94-8.21q0-99.42,0-198.84c0-5.21,2.63-8.31,7.94-8.86A133.85,133.85,0,0,1,159,6.56a151.35,151.35,0,0,1,60.29,24.76A177,177,0,0,1,238.49,46.7c2.53,2.31,3.95,2.28,6.44,0,17.78-16.4,38-28.7,61.38-35.83a132.49,132.49,0,0,1,37.63-6.12,127,127,0,0,1,17.56.69c4.81.61,7.37,3.61,7.43,8.39.05,3.58,0,7.16,0,10.74q0,91.57,0,183.14c0,2.43.49,3.31,3.17,3.23,7.18-.2,14.37-.12,21.56,0a4.19,4.19,0,0,0,3.95-1.88c11-15.28,20.89-31.14,27.25-48.92a78.23,78.23,0,0,0,3.07-43.28c-4.11-19.46-13.8-35.34-30.2-47.09-2.7-1.93-5.6-3.61-8.47-5.29a8.71,8.71,0,0,1-4.73-8.11c.05-12.76,0-25.52,0-38.28,0-5.41,3.53-7.83,8.69-6.08A126.46,126.46,0,0,1,448,47.91,124.16,124.16,0,0,1,475,97a136.34,136.34,0,0,1,5.29,35.79c.23,17.56-3.92,34.3-10.45,50.54a216.13,216.13,0,0,1-12.38,25.48c-.87,1.55-.7,2.11,1.17,2.07,3-.07,6,0,9,0q64.68,0,129.36-.06c2.59,0,3.43.46,3.43,3.24q-.14,98,0,196.08c0,2.46-.69,3-3.13,3q-170-.09-339.93-.05C252.17,413.09,252.17,413.09,251.7,408.2Zm196.2-97c0-13.31,0-26.61,0-39.92,0-1.85-.37-2.53-2.43-2.52q-32.06.11-64.11,0c-1.62,0-2.31.32-2.3,2.11q.07,40.06,0,80.12c0,1.81.75,2.11,2.33,2.08,4.39-.08,8.78,0,13.16,0,4.05,0,4.05,0,4.05-4.12,0-19.64.05-39.28-.08-58.92,0-2.61.78-3.16,3.26-3.11,7.55.15,15.11,0,22.67.06,4.24,0,3.91-.78,3.92,3.75,0,19.91,0,39.83,0,59.75,0,2,.49,2.71,2.63,2.64,4.57-.16,9.15-.18,13.71,0,2.48.1,3.31-.49,3.28-3.09C447.82,337.06,447.9,324.11,447.9,311.17ZM510.8,336c2.83-2.43,5-4.23,7.12-6.16,10-9.26,18-19.78,20.32-33.52,1.22-7.2.5-14.15-4.31-20.08-6-7.38-14.27-9.1-23.32-8.56-11.34.68-20,7.43-23.23,17.93-.5,1.62-.24,2.54,1.39,3.24,3.25,1.38,6.42,2.91,9.65,4.34,3.41,1.53,3.42,1.5,5.21-1.84a21.69,21.69,0,0,1,1.28-2.12A8.24,8.24,0,0,1,514,286c3,.79,4.8,3.13,5,6.81a18.83,18.83,0,0,1-.27,4.37c-1.18,6.82-5,12.31-9.21,17.62-6.41,8.12-14.14,15-21.49,22.24a3.87,3.87,0,0,0-1.53,3c.07,3.67.06,7.34,0,11,0,1.32.26,2,1.83,2q25.61-.06,51.21,0c1.45,0,2-.46,1.94-1.9-.07-4-.15-8.08,0-12.11.1-2.36-.52-3.17-3.08-3.12C529.56,336.14,520.62,336,510.8,336ZM317.51,310.83c0,13.22.05,26.43-.05,39.65,0,2.08.6,2.67,2.68,2.6,4.57-.15,9.16-.19,13.72,0,2.55.12,3.23-.61,3.22-3.14-.12-20.1,0-40.2-.12-60.3,0-2.1.47-2.82,2.74-2.79,8,.14,16.05,0,24.08.09,1.74,0,2.46-.34,2.4-2.24-.15-4.49-.17-9,0-13.49.09-2.19-.74-2.5-2.74-2.49q-21.4.13-42.83,0c-2.42,0-3.19.52-3.16,3C317.58,284.76,317.51,297.79,317.51,310.83Z" transform="translate(-3 -4.64)"/><path class="cls-2" d="M447.9,311.17c0,12.94-.08,25.89.07,38.83,0,2.6-.8,3.19-3.28,3.09-4.56-.19-9.14-.17-13.71,0-2.14.07-2.64-.61-2.63-2.64.08-19.92,0-39.84,0-59.75,0-4.53.32-3.73-3.92-3.75-7.56,0-15.12.09-22.67-.06-2.48-.05-3.27.5-3.26,3.11.13,19.64.08,39.28.08,58.92,0,4.12,0,4.12-4.05,4.12-4.38,0-8.77,0-13.16,0-1.58,0-2.34-.27-2.33-2.08q.07-40.07,0-80.12c0-1.79.68-2.11,2.3-2.11q32.06.06,64.11,0c2.06,0,2.44.67,2.43,2.52C447.86,284.56,447.9,297.86,447.9,311.17Z" transform="translate(-3 -4.64)"/><path class="cls-2" d="M510.8,336c9.82,0,18.76.1,27.69-.06,2.56-.05,3.18.76,3.08,3.12-.19,4-.11,8.07,0,12.11,0,1.44-.49,1.9-1.94,1.9q-25.61,0-51.21,0c-1.57,0-1.85-.69-1.83-2,.05-3.67.06-7.34,0-11a3.87,3.87,0,0,1,1.53-3c7.35-7.24,15.08-14.12,21.49-22.24,4.19-5.31,8-10.8,9.21-17.62a18.83,18.83,0,0,0,.27-4.37c-.24-3.68-2-6-5-6.81a8.24,8.24,0,0,0-9.09,3.24,21.69,21.69,0,0,0-1.28,2.12c-1.79,3.34-1.8,3.37-5.21,1.84-3.23-1.43-6.4-3-9.65-4.34-1.63-.7-1.89-1.62-1.39-3.24,3.25-10.5,11.89-17.25,23.23-17.93,9-.54,17.33,1.18,23.32,8.56,4.81,5.93,5.53,12.88,4.31,20.08-2.33,13.74-10.29,24.26-20.32,33.52C515.84,331.81,513.63,333.61,510.8,336Z" transform="translate(-3 -4.64)"/><path class="cls-2" d="M317.51,310.83c0-13,.07-26.07-.06-39.1,0-2.49.74-3,3.16-3q21.42.18,42.83,0c2,0,2.83.3,2.74,2.49-.17,4.5-.15,9,0,13.49.06,1.9-.66,2.26-2.4,2.24-8-.08-16.06.05-24.08-.09-2.27,0-2.75.69-2.74,2.79.08,20.1,0,40.2.12,60.3,0,2.53-.67,3.26-3.22,3.14-4.56-.21-9.15-.17-13.72,0-2.08.07-2.69-.52-2.68-2.6C317.56,337.26,317.51,324.05,317.51,310.83Z" transform="translate(-3 -4.64)"/></svg>